<svg width="23" height="24" viewBox="0 0 23 24" fill="none" xmlns="http://www.w3.org/2000/svg">
    <path
        d="M13.7439 0.914062L13.6758 1.05023C16.0353 2.07149 17.3738 4.18209 17.3738 6.49694C17.3738 8.99335 15.7403 11.2628 12.5641 13.1919L12.0423 13.5096C9.66016 14.962 8.45773 16.5961 8.45773 18.5705C8.45773 21.1123 10.4542 22.9732 13.1994 22.9732C17.6007 22.9732 22.7053 18.2755 22.7053 12.0117C22.7053 10.9905 22.5692 9.99191 22.3197 9.03874L22.1608 9.08413C22.2289 9.6061 22.2516 9.99191 22.2516 10.355C22.2516 14.0543 20.1644 17.2315 16.6705 19.3421L16.3302 19.5464C15.5815 19.9775 14.9463 20.2272 14.311 20.2272C13.4716 20.2272 12.8364 19.6825 12.8364 18.8882C12.8364 18.2074 13.2901 17.5265 14.7648 16.6641L15.1959 16.4145C18.4628 14.5081 20.2778 11.8302 20.2778 8.85718C20.2778 5.08987 17.4646 1.98071 13.7439 0.914062ZM8.97954 23.0867L9.0476 22.9505C6.68812 21.9293 5.34958 19.8187 5.34958 17.5038C5.34958 15.0074 6.98306 12.738 10.1593 10.8089L10.6811 10.4912C13.0632 9.03874 14.2657 7.40473 14.2657 5.43029C14.2657 2.88849 12.2692 1.02754 9.52403 1.02754C5.1227 1.02754 0.0180664 5.72532 0.0180664 11.989C0.0180664 13.0103 0.154191 14.0089 0.403751 14.962L0.562561 14.9166C0.4945 14.3947 0.471812 14.0089 0.471812 13.6457C0.471812 9.94653 2.55904 6.76928 6.05288 4.65868L6.39319 4.45442C7.14187 4.02323 7.77711 3.77359 8.41236 3.77359C9.25179 3.77359 9.88703 4.31826 9.88703 5.11257C9.88703 5.79341 9.43328 6.47425 7.95861 7.33664L7.52755 7.58628C4.26059 9.49263 2.4456 12.1706 2.4456 15.1436C2.4456 18.9109 5.25883 22.0201 8.97954 23.0867Z"
        fill="white" />
</svg>